# xmcd
#
# Track frame offsets:
#	150
#	15250
#	28540
#	47862
#	66567
#	81990
#	96637
#	108795
#	126225
#	143662
#	160617
#	173970
#	196262
#
# Disc length: 2856 seconds
#
# Revision: 0
# Processed by: cddbd v1.5.1PL0 Copyright (c) Steve Scherf et al.
# Submitted via: dBpowerAMP V4.0
#
DISCID=ac0b260d
DTITLE=Rockhouse Ramblers - Bar Time
DYEAR=1900
DGENRE=Alt Country
TTITLE0=Bloody Williamson
TTITLE1=Here And Gone
TTITLE2=Hillbilly Bound
TTITLE3=Bar Time
TTITLE4=Good Thing Going
TTITLE5=One Hand Loose
TTITLE6=Doing Alright
TTITLE7=Least That I Can Do
TTITLE8=Ain't Never Honky-Tonkin'
TTITLE9=Too Late To Cry
TTITLE10=Say What You Mean
TTITLE11=Gas And Food
TTITLE12=She Never Looked Back
EXTD=
EXTT0=
EXTT1=
EXTT2=
EXTT3=
EXTT4=
EXTT5=
EXTT6=
EXTT7=
EXTT8=
EXTT9=
EXTT10=
EXTT11=
EXTT12=
PLAYORDER=
